<?xml version="1.0" encoding="utf-8" standalone="no"?>
<!DOCTYPE svg PUBLIC "-//W3C//DTD SVG 1.1//EN"
  "http://www.w3.org/Graphics/SVG/1.1/DTD/svg11.dtd">
<svg xmlns:xlink="http://www.w3.org/1999/xlink" width="411.285625pt" height="333.688562pt" viewBox="0 0 411.285625 333.688562" xmlns="http://www.w3.org/2000/svg" version="1.1">
 <metadata>
  <rdf:RDF xmlns:dc="http://purl.org/dc/elements/1.1/" xmlns:cc="http://creativecommons.org/ns#" xmlns:rdf="http://www.w3.org/1999/02/22-rdf-syntax-ns#">
   <cc:Work>
    <dc:type rdf:resource="http://purl.org/dc/dcmitype/StillImage"/>
    <dc:date>2024-02-25T14:09:00.830117</dc:date>
    <dc:format>image/svg+xml</dc:format>
    <dc:creator>
     <cc:Agent>
      <dc:title>Matplotlib v3.5.1, https://matplotlib.org/</dc:title>
     </cc:Agent>
    </dc:creator>
   </cc:Work>
  </rdf:RDF>
 </metadata>
 <defs>
  <style type="text/css">*{stroke-linejoin: round; stroke-linecap: butt}</style>
 </defs>
 <g id="figure_1">
  <g id="patch_1">
   <path d="M 0 333.688562 
L 411.285625 333.688562 
L 411.285625 0 
L 0 0 
z
" style="fill: #ffffff"/>
  </g>
  <g id="axes_1">
   <g id="patch_2">
    <path d="M 46.965625 296.132312 
L 404.085625 296.132312 
L 404.085625 30.020312 
L 46.965625 30.020312 
z
" style="fill: #ffffff"/>
   </g>
   <g id="patch_3">
    <path d="M 63.198352 296.132312 
L 81.234716 296.132312 
L 81.234716 99.624486 
L 63.198352 99.624486 
z
" clip-path="url(#pd2a17df866)" style="fill: #66c2a5; stroke: #000000; stroke-linejoin: miter"/>
   </g>
   <g id="patch_4">
    <path d="M 63.198352 99.624486 
L 81.234716 99.624486 
L 81.234716 82.17753 
L 63.198352 82.17753 
z
" clip-path="url(#pd2a17df866)" style="fill: #fc8d62; stroke: #000000; stroke-linejoin: miter"/>
   </g>
   <g id="patch_5">
    <path d="M 63.198352 82.17753 
L 81.234716 82.17753 
L 81.234716 64.730573 
L 63.198352 64.730573 
z
" clip-path="url(#pd2a17df866)" style="fill: #fc8d62; stroke: #000000; stroke-linejoin: miter"/>
   </g>
   <g id="patch_6">
    <path d="M 81.234716 296.132312 
L 99.27108 296.132312 
L 99.27108 84.014052 
L 81.234716 84.014052 
z
" clip-path="url(#pd2a17df866)" style="fill: #66c2a5; stroke: #000000; stroke-linejoin: miter"/>
   </g>
   <g id="patch_7">
    <path d="M 81.234716 84.014052 
L 99.27108 84.014052 
L 99.27108 64.730573 
L 81.234716 64.730573 
z
" clip-path="url(#pd2a17df866)" style="fill: #fc8d62; stroke: #000000; stroke-linejoin: miter"/>
   </g>
   <g id="patch_8">
    <path d="M 99.27108 296.132312 
L 117.307443 296.132312 
L 117.307443 273.175791 
L 99.27108 273.175791 
z
" clip-path="url(#pd2a17df866)" style="fill: #fc8d62; stroke: #000000; stroke-linejoin: miter"/>
   </g>
   <g id="patch_9">
    <path d="M 99.27108 273.175791 
L 117.307443 273.175791 
L 117.307443 86.768834 
L 99.27108 86.768834 
z
" clip-path="url(#pd2a17df866)" style="fill: #8da0cb; stroke: #000000; stroke-linejoin: miter"/>
   </g>
   <g id="patch_10">
    <path d="M 99.27108 86.768834 
L 117.307443 86.768834 
L 117.307443 64.730573 
L 99.27108 64.730573 
z
" clip-path="url(#pd2a17df866)" style="fill: #fc8d62; stroke: #000000; stroke-linejoin: miter"/>
   </g>
   <g id="patch_11">
    <path d="M 130.834716 296.132312 
L 148.87108 296.132312 
L 148.87108 223.589704 
L 130.834716 223.589704 
z
" clip-path="url(#pd2a17df866)" style="fill: #66c2a5; stroke: #000000; stroke-linejoin: miter"/>
   </g>
   <g id="patch_12">
    <path d="M 130.834716 223.589704 
L 148.87108 223.589704 
L 148.87108 216.243617 
L 130.834716 216.243617 
z
" clip-path="url(#pd2a17df866)" style="fill: #fc8d62; stroke: #000000; stroke-linejoin: miter"/>
   </g>
   <g id="patch_13">
    <path d="M 130.834716 216.243617 
L 148.87108 216.243617 
L 148.87108 136.354921 
L 130.834716 136.354921 
z
" clip-path="url(#pd2a17df866)" style="fill: #8da0cb; stroke: #000000; stroke-linejoin: miter"/>
   </g>
   <g id="patch_14">
    <path d="M 130.834716 136.354921 
L 148.87108 136.354921 
L 148.87108 64.730573 
L 130.834716 64.730573 
z
" clip-path="url(#pd2a17df866)" style="fill: #66c2a5; stroke: #000000; stroke-linejoin: miter"/>
   </g>
   <g id="patch_15">
    <path d="M 148.87108 296.132312 
L 166.907443 296.132312 
L 166.907443 221.753182 
L 148.87108 221.753182 
z
" clip-path="url(#pd2a17df866)" style="fill: #66c2a5; stroke: #000000; stroke-linejoin: miter"/>
   </g>
   <g id="patch_16">
    <path d="M 148.87108 221.753182 
L 166.907443 221.753182 
L 166.907443 214.407095 
L 148.87108 214.407095 
z
" clip-path="url(#pd2a17df866)" style="fill: #fc8d62; stroke: #000000; stroke-linejoin: miter"/>
   </g>
   <g id="patch_17">
    <path d="M 148.87108 214.407095 
L 166.907443 214.407095 
L 166.907443 138.191443 
L 148.87108 138.191443 
z
" clip-path="url(#pd2a17df866)" style="fill: #66c2a5; stroke: #000000; stroke-linejoin: miter"/>
   </g>
   <g id="patch_18">
    <path d="M 148.87108 138.191443 
L 166.907443 138.191443 
L 166.907443 64.730573 
L 148.87108 64.730573 
z
" clip-path="url(#pd2a17df866)" style="fill: #66c2a5; stroke: #000000; stroke-linejoin: miter"/>
   </g>
   <g id="patch_19">
    <path d="M 166.907443 296.132312 
L 184.943807 296.132312 
L 184.943807 230.01753 
L 166.907443 230.01753 
z
" clip-path="url(#pd2a17df866)" style="fill: #8da0cb; stroke: #000000; stroke-linejoin: miter"/>
   </g>
   <g id="patch_20">
    <path d="M 166.907443 230.01753 
L 184.943807 230.01753 
L 184.943807 146.455791 
L 166.907443 146.455791 
z
" clip-path="url(#pd2a17df866)" style="fill: #66c2a5; stroke: #000000; stroke-linejoin: miter"/>
   </g>
   <g id="patch_21">
    <path d="M 166.907443 146.455791 
L 184.943807 146.455791 
L 184.943807 64.730573 
L 166.907443 64.730573 
z
" clip-path="url(#pd2a17df866)" style="fill: #66c2a5; stroke: #000000; stroke-linejoin: miter"/>
   </g>
   <g id="patch_22">
    <path d="M 198.47108 296.132312 
L 216.507443 296.132312 
L 216.507443 247.464486 
L 198.47108 247.464486 
z
" clip-path="url(#pd2a17df866)" style="fill: #66c2a5; stroke: #000000; stroke-linejoin: miter"/>
   </g>
   <g id="patch_23">
    <path d="M 198.47108 247.464486 
L 216.507443 247.464486 
L 216.507443 201.551443 
L 198.47108 201.551443 
z
" clip-path="url(#pd2a17df866)" style="fill: #66c2a5; stroke: #000000; stroke-linejoin: miter"/>
   </g>
   <g id="patch_24">
    <path d="M 198.47108 201.551443 
L 216.507443 201.551443 
L 216.507443 153.801878 
L 198.47108 153.801878 
z
" clip-path="url(#pd2a17df866)" style="fill: #66c2a5; stroke: #000000; stroke-linejoin: miter"/>
   </g>
   <g id="patch_25">
    <path d="M 198.47108 153.801878 
L 216.507443 153.801878 
L 216.507443 114.31666 
L 198.47108 114.31666 
z
" clip-path="url(#pd2a17df866)" style="fill: #8da0cb; stroke: #000000; stroke-linejoin: miter"/>
   </g>
   <g id="patch_26">
    <path d="M 198.47108 114.31666 
L 216.507443 114.31666 
L 216.507443 64.730573 
L 198.47108 64.730573 
z
" clip-path="url(#pd2a17df866)" style="fill: #8da0cb; stroke: #000000; stroke-linejoin: miter"/>
   </g>
   <g id="patch_27">
    <path d="M 216.507443 296.132312 
L 234.543807 296.132312 
L 234.543807 247.464486 
L 216.507443 247.464486 
z
" clip-path="url(#pd2a17df866)" style="fill: #66c2a5; stroke: #000000; stroke-linejoin: miter"/>
   </g>
   <g id="patch_28">
    <path d="M 216.507443 247.464486 
L 234.543807 247.464486 
L 234.543807 212.570573 
L 216.507443 212.570573 
z
" clip-path="url(#pd2a17df866)" style="fill: #8da0cb; stroke: #000000; stroke-linejoin: miter"/>
   </g>
   <g id="patch_29">
    <path d="M 216.507443 212.570573 
L 234.543807 212.570573 
L 234.543807 162.984486 
L 216.507443 162.984486 
z
" clip-path="url(#pd2a17df866)" style="fill: #66c2a5; stroke: #000000; stroke-linejoin: miter"/>
   </g>
   <g id="patch_30">
    <path d="M 216.507443 162.984486 
L 234.543807 162.984486 
L 234.543807 113.398399 
L 216.507443 113.398399 
z
" clip-path="url(#pd2a17df866)" style="fill: #66c2a5; stroke: #000000; stroke-linejoin: miter"/>
   </g>
   <g id="patch_31">
    <path d="M 216.507443 113.398399 
L 234.543807 113.398399 
L 234.543807 64.730573 
L 216.507443 64.730573 
z
" clip-path="url(#pd2a17df866)" style="fill: #66c2a5; stroke: #000000; stroke-linejoin: miter"/>
   </g>
   <g id="patch_32">
    <path d="M 234.543807 296.132312 
L 252.58017 296.132312 
L 252.58017 245.627965 
L 234.543807 245.627965 
z
" clip-path="url(#pd2a17df866)" style="fill: #66c2a5; stroke: #000000; stroke-linejoin: miter"/>
   </g>
   <g id="patch_33">
    <path d="M 234.543807 245.627965 
L 252.58017 245.627965 
L 252.58017 195.123617 
L 234.543807 195.123617 
z
" clip-path="url(#pd2a17df866)" style="fill: #66c2a5; stroke: #000000; stroke-linejoin: miter"/>
   </g>
   <g id="patch_34">
    <path d="M 234.543807 195.123617 
L 252.58017 195.123617 
L 252.58017 139.109704 
L 234.543807 139.109704 
z
" clip-path="url(#pd2a17df866)" style="fill: #8da0cb; stroke: #000000; stroke-linejoin: miter"/>
   </g>
   <g id="patch_35">
    <path d="M 234.543807 139.109704 
L 252.58017 139.109704 
L 252.58017 98.706226 
L 234.543807 98.706226 
z
" clip-path="url(#pd2a17df866)" style="fill: #8da0cb; stroke: #000000; stroke-linejoin: miter"/>
   </g>
   <g id="patch_36">
    <path d="M 234.543807 98.706226 
L 252.58017 98.706226 
L 252.58017 64.730573 
L 234.543807 64.730573 
z
" clip-path="url(#pd2a17df866)" style="fill: #8da0cb; stroke: #000000; stroke-linejoin: miter"/>
   </g>
   <g id="patch_37">
    <path d="M 266.107443 296.132312 
L 284.143807 296.132312 
L 284.143807 259.401878 
L 266.107443 259.401878 
z
" clip-path="url(#pd2a17df866)" style="fill: #66c2a5; stroke: #000000; stroke-linejoin: miter"/>
   </g>
   <g id="patch_38">
    <path d="M 266.107443 259.401878 
L 284.143807 259.401878 
L 284.143807 255.728834 
L 266.107443 255.728834 
z
" clip-path="url(#pd2a17df866)" style="fill: #fc8d62; stroke: #000000; stroke-linejoin: miter"/>
   </g>
   <g id="patch_39">
    <path d="M 266.107443 255.728834 
L 284.143807 255.728834 
L 284.143807 252.055791 
L 266.107443 252.055791 
z
" clip-path="url(#pd2a17df866)" style="fill: #fc8d62; stroke: #000000; stroke-linejoin: miter"/>
   </g>
   <g id="patch_40">
    <path d="M 266.107443 252.055791 
L 284.143807 252.055791 
L 284.143807 215.325356 
L 266.107443 215.325356 
z
" clip-path="url(#pd2a17df866)" style="fill: #66c2a5; stroke: #000000; stroke-linejoin: miter"/>
   </g>
   <g id="patch_41">
    <path d="M 266.107443 215.325356 
L 284.143807 215.325356 
L 284.143807 178.594921 
L 266.107443 178.594921 
z
" clip-path="url(#pd2a17df866)" style="fill: #66c2a5; stroke: #000000; stroke-linejoin: miter"/>
   </g>
   <g id="patch_42">
    <path d="M 266.107443 178.594921 
L 284.143807 178.594921 
L 284.143807 141.864486 
L 266.107443 141.864486 
z
" clip-path="url(#pd2a17df866)" style="fill: #66c2a5; stroke: #000000; stroke-linejoin: miter"/>
   </g>
   <g id="patch_43">
    <path d="M 266.107443 141.864486 
L 284.143807 141.864486 
L 284.143807 105.134052 
L 266.107443 105.134052 
z
" clip-path="url(#pd2a17df866)" style="fill: #66c2a5; stroke: #000000; stroke-linejoin: miter"/>
   </g>
   <g id="patch_44">
    <path d="M 266.107443 105.134052 
L 284.143807 105.134052 
L 284.143807 64.730573 
L 266.107443 64.730573 
z
" clip-path="url(#pd2a17df866)" style="fill: #8da0cb; stroke: #000000; stroke-linejoin: miter"/>
   </g>
   <g id="patch_45">
    <path d="M 284.143807 296.132312 
L 302.18017 296.132312 
L 302.18017 292.459269 
L 284.143807 292.459269 
z
" clip-path="url(#pd2a17df866)" style="fill: #fc8d62; stroke: #000000; stroke-linejoin: miter"/>
   </g>
   <g id="patch_46">
    <path d="M 284.143807 292.459269 
L 302.18017 292.459269 
L 302.18017 288.786226 
L 284.143807 288.786226 
z
" clip-path="url(#pd2a17df866)" style="fill: #fc8d62; stroke: #000000; stroke-linejoin: miter"/>
   </g>
   <g id="patch_47">
    <path d="M 284.143807 288.786226 
L 302.18017 288.786226 
L 302.18017 249.301008 
L 284.143807 249.301008 
z
" clip-path="url(#pd2a17df866)" style="fill: #66c2a5; stroke: #000000; stroke-linejoin: miter"/>
   </g>
   <g id="patch_48">
    <path d="M 284.143807 249.301008 
L 302.18017 249.301008 
L 302.18017 209.815791 
L 284.143807 209.815791 
z
" clip-path="url(#pd2a17df866)" style="fill: #66c2a5; stroke: #000000; stroke-linejoin: miter"/>
   </g>
   <g id="patch_49">
    <path d="M 284.143807 209.815791 
L 302.18017 209.815791 
L 302.18017 166.65753 
L 284.143807 166.65753 
z
" clip-path="url(#pd2a17df866)" style="fill: #8da0cb; stroke: #000000; stroke-linejoin: miter"/>
   </g>
   <g id="patch_50">
    <path d="M 284.143807 166.65753 
L 302.18017 166.65753 
L 302.18017 136.354921 
L 284.143807 136.354921 
z
" clip-path="url(#pd2a17df866)" style="fill: #8da0cb; stroke: #000000; stroke-linejoin: miter"/>
   </g>
   <g id="patch_51">
    <path d="M 284.143807 136.354921 
L 302.18017 136.354921 
L 302.18017 100.542747 
L 284.143807 100.542747 
z
" clip-path="url(#pd2a17df866)" style="fill: #66c2a5; stroke: #000000; stroke-linejoin: miter"/>
   </g>
   <g id="patch_52">
    <path d="M 284.143807 100.542747 
L 302.18017 100.542747 
L 302.18017 64.730573 
L 284.143807 64.730573 
z
" clip-path="url(#pd2a17df866)" style="fill: #66c2a5; stroke: #000000; stroke-linejoin: miter"/>
   </g>
   <g id="patch_53">
    <path d="M 302.18017 296.132312 
L 320.216534 296.132312 
L 320.216534 247.464486 
L 302.18017 247.464486 
z
" clip-path="url(#pd2a17df866)" style="fill: #8da0cb; stroke: #000000; stroke-linejoin: miter"/>
   </g>
   <g id="patch_54">
    <path d="M 302.18017 247.464486 
L 320.216534 247.464486 
L 320.216534 207.979269 
L 302.18017 207.979269 
z
" clip-path="url(#pd2a17df866)" style="fill: #8da0cb; stroke: #000000; stroke-linejoin: miter"/>
   </g>
   <g id="patch_55">
    <path d="M 302.18017 207.979269 
L 320.216534 207.979269 
L 320.216534 169.412312 
L 302.18017 169.412312 
z
" clip-path="url(#pd2a17df866)" style="fill: #66c2a5; stroke: #000000; stroke-linejoin: miter"/>
   </g>
   <g id="patch_56">
    <path d="M 302.18017 169.412312 
L 320.216534 169.412312 
L 320.216534 138.191443 
L 302.18017 138.191443 
z
" clip-path="url(#pd2a17df866)" style="fill: #8da0cb; stroke: #000000; stroke-linejoin: miter"/>
   </g>
   <g id="patch_57">
    <path d="M 302.18017 138.191443 
L 320.216534 138.191443 
L 320.216534 100.542747 
L 302.18017 100.542747 
z
" clip-path="url(#pd2a17df866)" style="fill: #66c2a5; stroke: #000000; stroke-linejoin: miter"/>
   </g>
   <g id="patch_58">
    <path d="M 302.18017 100.542747 
L 320.216534 100.542747 
L 320.216534 64.730573 
L 302.18017 64.730573 
z
" clip-path="url(#pd2a17df866)" style="fill: #66c2a5; stroke: #000000; stroke-linejoin: miter"/>
   </g>
   <g id="patch_59">
    <path d="M 333.743807 296.132312 
L 351.78017 296.132312 
L 351.78017 292.459269 
L 333.743807 292.459269 
z
" clip-path="url(#pd2a17df866)" style="fill: #fc8d62; stroke: #000000; stroke-linejoin: miter"/>
   </g>
   <g id="patch_60">
    <path d="M 333.743807 292.459269 
L 351.78017 292.459269 
L 351.78017 256.647095 
L 333.743807 256.647095 
z
" clip-path="url(#pd2a17df866)" style="fill: #8da0cb; stroke: #000000; stroke-linejoin: miter"/>
   </g>
   <g id="patch_61">
    <path d="M 333.743807 256.647095 
L 351.78017 256.647095 
L 351.78017 226.344486 
L 333.743807 226.344486 
z
" clip-path="url(#pd2a17df866)" style="fill: #66c2a5; stroke: #000000; stroke-linejoin: miter"/>
   </g>
   <g id="patch_62">
    <path d="M 333.743807 226.344486 
L 351.78017 226.344486 
L 351.78017 222.671443 
L 333.743807 222.671443 
z
" clip-path="url(#pd2a17df866)" style="fill: #fc8d62; stroke: #000000; stroke-linejoin: miter"/>
   </g>
   <g id="patch_63">
    <path d="M 333.743807 222.671443 
L 351.78017 222.671443 
L 351.78017 193.287095 
L 333.743807 193.287095 
z
" clip-path="url(#pd2a17df866)" style="fill: #66c2a5; stroke: #000000; stroke-linejoin: miter"/>
   </g>
   <g id="patch_64">
    <path d="M 333.743807 193.287095 
L 351.78017 193.287095 
L 351.78017 162.984486 
L 333.743807 162.984486 
z
" clip-path="url(#pd2a17df866)" style="fill: #66c2a5; stroke: #000000; stroke-linejoin: miter"/>
   </g>
   <g id="patch_65">
    <path d="M 333.743807 162.984486 
L 351.78017 162.984486 
L 351.78017 133.600139 
L 333.743807 133.600139 
z
" clip-path="url(#pd2a17df866)" style="fill: #66c2a5; stroke: #000000; stroke-linejoin: miter"/>
   </g>
   <g id="patch_66">
    <path d="M 333.743807 133.600139 
L 351.78017 133.600139 
L 351.78017 104.215791 
L 333.743807 104.215791 
z
" clip-path="url(#pd2a17df866)" style="fill: #66c2a5; stroke: #000000; stroke-linejoin: miter"/>
   </g>
   <g id="patch_67">
    <path d="M 333.743807 104.215791 
L 351.78017 104.215791 
L 351.78017 72.07666 
L 333.743807 72.07666 
z
" clip-path="url(#pd2a17df866)" style="fill: #8da0cb; stroke: #000000; stroke-linejoin: miter"/>
   </g>
   <g id="patch_68">
    <path d="M 333.743807 72.07666 
L 351.78017 72.07666 
L 351.78017 68.403617 
L 333.743807 68.403617 
z
" clip-path="url(#pd2a17df866)" style="fill: #fc8d62; stroke: #000000; stroke-linejoin: miter"/>
   </g>
   <g id="patch_69">
    <path d="M 333.743807 68.403617 
L 351.78017 68.403617 
L 351.78017 64.730573 
L 333.743807 64.730573 
z
" clip-path="url(#pd2a17df866)" style="fill: #fc8d62; stroke: #000000; stroke-linejoin: miter"/>
   </g>
   <g id="patch_70">
    <path d="M 351.78017 296.132312 
L 369.816534 296.132312 
L 369.816534 292.459269 
L 351.78017 292.459269 
z
" clip-path="url(#pd2a17df866)" style="fill: #fc8d62; stroke: #000000; stroke-linejoin: miter"/>
   </g>
   <g id="patch_71">
    <path d="M 351.78017 292.459269 
L 369.816534 292.459269 
L 369.816534 259.401878 
L 351.78017 259.401878 
z
" clip-path="url(#pd2a17df866)" style="fill: #8da0cb; stroke: #000000; stroke-linejoin: miter"/>
   </g>
   <g id="patch_72">
    <path d="M 351.78017 259.401878 
L 369.816534 259.401878 
L 369.816534 228.181008 
L 351.78017 228.181008 
z
" clip-path="url(#pd2a17df866)" style="fill: #66c2a5; stroke: #000000; stroke-linejoin: miter"/>
   </g>
   <g id="patch_73">
    <path d="M 351.78017 228.181008 
L 369.816534 228.181008 
L 369.816534 197.878399 
L 351.78017 197.878399 
z
" clip-path="url(#pd2a17df866)" style="fill: #66c2a5; stroke: #000000; stroke-linejoin: miter"/>
   </g>
   <g id="patch_74">
    <path d="M 351.78017 197.878399 
L 369.816534 197.878399 
L 369.816534 167.575791 
L 351.78017 167.575791 
z
" clip-path="url(#pd2a17df866)" style="fill: #66c2a5; stroke: #000000; stroke-linejoin: miter"/>
   </g>
   <g id="patch_75">
    <path d="M 351.78017 167.575791 
L 369.816534 167.575791 
L 369.816534 137.273182 
L 351.78017 137.273182 
z
" clip-path="url(#pd2a17df866)" style="fill: #66c2a5; stroke: #000000; stroke-linejoin: miter"/>
   </g>
   <g id="patch_76">
    <path d="M 351.78017 137.273182 
L 369.816534 137.273182 
L 369.816534 115.234921 
L 351.78017 115.234921 
z
" clip-path="url(#pd2a17df866)" style="fill: #8da0cb; stroke: #000000; stroke-linejoin: miter"/>
   </g>
   <g id="patch_77">
    <path d="M 351.78017 115.234921 
L 369.816534 115.234921 
L 369.816534 87.687095 
L 351.78017 87.687095 
z
" clip-path="url(#pd2a17df866)" style="fill: #66c2a5; stroke: #000000; stroke-linejoin: miter"/>
   </g>
   <g id="patch_78">
    <path d="M 351.78017 87.687095 
L 369.816534 87.687095 
L 369.816534 64.730573 
L 351.78017 64.730573 
z
" clip-path="url(#pd2a17df866)" style="fill: #8da0cb; stroke: #000000; stroke-linejoin: miter"/>
   </g>
   <g id="patch_79">
    <path d="M 369.816534 296.132312 
L 387.852898 296.132312 
L 387.852898 254.810573 
L 369.816534 254.810573 
z
" clip-path="url(#pd2a17df866)" style="fill: #8da0cb; stroke: #000000; stroke-linejoin: miter"/>
   </g>
   <g id="patch_80">
    <path d="M 369.816534 254.810573 
L 387.852898 254.810573 
L 387.852898 222.671443 
L 369.816534 222.671443 
z
" clip-path="url(#pd2a17df866)" style="fill: #66c2a5; stroke: #000000; stroke-linejoin: miter"/>
   </g>
   <g id="patch_81">
    <path d="M 369.816534 222.671443 
L 387.852898 222.671443 
L 387.852898 190.532312 
L 369.816534 190.532312 
z
" clip-path="url(#pd2a17df866)" style="fill: #66c2a5; stroke: #000000; stroke-linejoin: miter"/>
   </g>
   <g id="patch_82">
    <path d="M 369.816534 190.532312 
L 387.852898 190.532312 
L 387.852898 162.984486 
L 369.816534 162.984486 
z
" clip-path="url(#pd2a17df866)" style="fill: #8da0cb; stroke: #000000; stroke-linejoin: miter"/>
   </g>
   <g id="patch_83">
    <path d="M 369.816534 162.984486 
L 387.852898 162.984486 
L 387.852898 132.681878 
L 369.816534 132.681878 
z
" clip-path="url(#pd2a17df866)" style="fill: #66c2a5; stroke: #000000; stroke-linejoin: miter"/>
   </g>
   <g id="patch_84">
    <path d="M 369.816534 132.681878 
L 387.852898 132.681878 
L 387.852898 129.008834 
L 369.816534 129.008834 
z
" clip-path="url(#pd2a17df866)" style="fill: #fc8d62; stroke: #000000; stroke-linejoin: miter"/>
   </g>
   <g id="patch_85">
    <path d="M 369.816534 129.008834 
L 387.852898 129.008834 
L 387.852898 125.335791 
L 369.816534 125.335791 
z
" clip-path="url(#pd2a17df866)" style="fill: #fc8d62; stroke: #000000; stroke-linejoin: miter"/>
   </g>
   <g id="patch_86">
    <path d="M 369.816534 125.335791 
L 387.852898 125.335791 
L 387.852898 94.114921 
L 369.816534 94.114921 
z
" clip-path="url(#pd2a17df866)" style="fill: #66c2a5; stroke: #000000; stroke-linejoin: miter"/>
   </g>
   <g id="patch_87">
    <path d="M 369.816534 94.114921 
L 387.852898 94.114921 
L 387.852898 64.730573 
L 369.816534 64.730573 
z
" clip-path="url(#pd2a17df866)" style="fill: #66c2a5; stroke: #000000; stroke-linejoin: miter"/>
   </g>
   <g id="matplotlib.axis_1">
    <g id="xtick_1">
     <g id="line2d_1">
      <defs>
       <path id="m4a5b963327" d="M 0 0 
L 0 3.5 
" style="stroke: #000000; stroke-width: 0.8"/>
      </defs>
      <g>
       <use xlink:href="#m4a5b963327" x="89.125625" y="296.132312" style="stroke: #000000; stroke-width: 0.8"/>
      </g>
     </g>
     <g id="text_1">
      <!-- &lt;250,000 -->
      <g transform="translate(64.259219 310.73075)scale(0.1 -0.1)">
       <defs>
        <path id="DejaVuSerif-3c" d="M 4684 3188 
L 1441 2003 
L 4684 825 
L 4684 294 
L 678 1747 
L 678 2266 
L 4684 3719 
L 4684 3188 
z
" transform="scale(0.015625)"/>
        <path id="DejaVuSerif-32" d="M 819 3553 
L 469 3553 
L 469 4384 
Q 803 4563 1142 4656 
Q 1481 4750 1806 4750 
Q 2534 4750 2956 4397 
Q 3378 4044 3378 3438 
Q 3378 2753 2422 1800 
Q 2347 1728 2309 1691 
L 1131 513 
L 3078 513 
L 3078 1088 
L 3444 1088 
L 3444 0 
L 434 0 
L 434 341 
L 1850 1753 
Q 2319 2222 2519 2614 
Q 2719 3006 2719 3438 
Q 2719 3909 2473 4175 
Q 2228 4441 1797 4441 
Q 1350 4441 1106 4219 
Q 863 3997 819 3553 
z
" transform="scale(0.015625)"/>
        <path id="DejaVuSerif-35" d="M 3219 4666 
L 3219 4153 
L 1081 4153 
L 1081 2816 
Q 1244 2928 1461 2984 
Q 1678 3041 1947 3041 
Q 2703 3041 3140 2622 
Q 3578 2203 3578 1478 
Q 3578 738 3136 323 
Q 2694 -91 1894 -91 
Q 1572 -91 1234 -12 
Q 897 66 544 225 
L 544 1131 
L 897 1131 
Q 925 688 1179 453 
Q 1434 219 1894 219 
Q 2388 219 2653 544 
Q 2919 869 2919 1478 
Q 2919 2084 2655 2407 
Q 2391 2731 1894 2731 
Q 1613 2731 1398 2631 
Q 1184 2531 1019 2322 
L 750 2322 
L 750 4666 
L 3219 4666 
z
" transform="scale(0.015625)"/>
        <path id="DejaVuSerif-30" d="M 2034 219 
Q 2513 219 2750 744 
Q 2988 1269 2988 2328 
Q 2988 3391 2750 3916 
Q 2513 4441 2034 4441 
Q 1556 4441 1318 3916 
Q 1081 3391 1081 2328 
Q 1081 1269 1318 744 
Q 1556 219 2034 219 
z
M 2034 -91 
Q 1275 -91 848 546 
Q 422 1184 422 2328 
Q 422 3475 848 4112 
Q 1275 4750 2034 4750 
Q 2797 4750 3222 4112 
Q 3647 3475 3647 2328 
Q 3647 1184 3222 546 
Q 2797 -91 2034 -91 
z
" transform="scale(0.015625)"/>
        <path id="DejaVuSerif-2c" d="M 231 -622 
Q 525 -406 662 -114 
Q 800 178 800 594 
L 800 709 
L 1416 709 
Q 1391 175 1164 -208 
Q 938 -591 481 -872 
L 231 -622 
z
" transform="scale(0.015625)"/>
       </defs>
       <use xlink:href="#DejaVuSerif-3c"/>
       <use xlink:href="#DejaVuSerif-32" x="83.789062"/>
       <use xlink:href="#DejaVuSerif-35" x="147.412109"/>
       <use xlink:href="#DejaVuSerif-30" x="211.035156"/>
       <use xlink:href="#DejaVuSerif-2c" x="274.658203"/>
       <use xlink:href="#DejaVuSerif-30" x="306.445312"/>
       <use xlink:href="#DejaVuSerif-30" x="370.068359"/>
       <use xlink:href="#DejaVuSerif-30" x="433.691406"/>
      </g>
     </g>
    </g>
    <g id="xtick_2">
     <g id="line2d_2">
      <g>
       <use xlink:href="#m4a5b963327" x="156.761989" y="296.132312" style="stroke: #000000; stroke-width: 0.8"/>
      </g>
     </g>
     <g id="text_2">
      <!-- &lt;500,000 -->
      <g transform="translate(131.895582 310.73075)scale(0.1 -0.1)">
       <use xlink:href="#DejaVuSerif-3c"/>
       <use xlink:href="#DejaVuSerif-35" x="83.789062"/>
       <use xlink:href="#DejaVuSerif-30" x="147.412109"/>
       <use xlink:href="#DejaVuSerif-30" x="211.035156"/>
       <use xlink:href="#DejaVuSerif-2c" x="274.658203"/>
       <use xlink:href="#DejaVuSerif-30" x="306.445312"/>
       <use xlink:href="#DejaVuSerif-30" x="370.068359"/>
       <use xlink:href="#DejaVuSerif-30" x="433.691406"/>
      </g>
     </g>
    </g>
    <g id="xtick_3">
     <g id="line2d_3">
      <g>
       <use xlink:href="#m4a5b963327" x="224.398352" y="296.132312" style="stroke: #000000; stroke-width: 0.8"/>
      </g>
     </g>
     <g id="text_3">
      <!-- &lt;750,000 -->
      <g transform="translate(199.531946 310.73075)scale(0.1 -0.1)">
       <defs>
        <path id="DejaVuSerif-37" d="M 3609 4347 
L 1784 0 
L 1319 0 
L 3059 4153 
L 903 4153 
L 903 3578 
L 538 3578 
L 538 4666 
L 3609 4666 
L 3609 4347 
z
" transform="scale(0.015625)"/>
       </defs>
       <use xlink:href="#DejaVuSerif-3c"/>
       <use xlink:href="#DejaVuSerif-37" x="83.789062"/>
       <use xlink:href="#DejaVuSerif-35" x="147.412109"/>
       <use xlink:href="#DejaVuSerif-30" x="211.035156"/>
       <use xlink:href="#DejaVuSerif-2c" x="274.658203"/>
       <use xlink:href="#DejaVuSerif-30" x="306.445312"/>
       <use xlink:href="#DejaVuSerif-30" x="370.068359"/>
       <use xlink:href="#DejaVuSerif-30" x="433.691406"/>
      </g>
     </g>
    </g>
    <g id="xtick_4">
     <g id="line2d_4">
      <g>
       <use xlink:href="#m4a5b963327" x="292.034716" y="296.132312" style="stroke: #000000; stroke-width: 0.8"/>
      </g>
     </g>
     <g id="text_4">
      <!-- &lt;1,000,000 -->
      <g transform="translate(262.397997 310.73075)scale(0.1 -0.1)">
       <defs>
        <path id="DejaVuSerif-31" d="M 909 0 
L 909 331 
L 1722 331 
L 1722 4213 
L 781 3603 
L 781 4013 
L 1919 4750 
L 2350 4750 
L 2350 331 
L 3163 331 
L 3163 0 
L 909 0 
z
" transform="scale(0.015625)"/>
       </defs>
       <use xlink:href="#DejaVuSerif-3c"/>
       <use xlink:href="#DejaVuSerif-31" x="83.789062"/>
       <use xlink:href="#DejaVuSerif-2c" x="147.412109"/>
       <use xlink:href="#DejaVuSerif-30" x="179.199219"/>
       <use xlink:href="#DejaVuSerif-30" x="242.822266"/>
       <use xlink:href="#DejaVuSerif-30" x="306.445312"/>
       <use xlink:href="#DejaVuSerif-2c" x="370.068359"/>
       <use xlink:href="#DejaVuSerif-30" x="401.855469"/>
       <use xlink:href="#DejaVuSerif-30" x="465.478516"/>
       <use xlink:href="#DejaVuSerif-30" x="529.101562"/>
      </g>
     </g>
    </g>
    <g id="xtick_5">
     <g id="line2d_5">
      <g>
       <use xlink:href="#m4a5b963327" x="359.67108" y="296.132312" style="stroke: #000000; stroke-width: 0.8"/>
      </g>
     </g>
     <g id="text_5">
      <!-- &lt;1,250,000 -->
      <g transform="translate(330.034361 310.73075)scale(0.1 -0.1)">
       <use xlink:href="#DejaVuSerif-3c"/>
       <use xlink:href="#DejaVuSerif-31" x="83.789062"/>
       <use xlink:href="#DejaVuSerif-2c" x="147.412109"/>
       <use xlink:href="#DejaVuSerif-32" x="179.199219"/>
       <use xlink:href="#DejaVuSerif-35" x="242.822266"/>
       <use xlink:href="#DejaVuSerif-30" x="306.445312"/>
       <use xlink:href="#DejaVuSerif-2c" x="370.068359"/>
       <use xlink:href="#DejaVuSerif-30" x="401.855469"/>
       <use xlink:href="#DejaVuSerif-30" x="465.478516"/>
       <use xlink:href="#DejaVuSerif-30" x="529.101562"/>
      </g>
     </g>
    </g>
    <g id="text_6">
     <!-- Total Team Cost ($\$$) -->
     <g transform="translate(175.275625 324.408875)scale(0.1 -0.1)">
      <defs>
       <path id="DejaVuSerif-54" d="M 1222 0 
L 1222 331 
L 1819 331 
L 1819 4294 
L 447 4294 
L 447 3566 
L 63 3566 
L 63 4666 
L 4206 4666 
L 4206 3566 
L 3822 3566 
L 3822 4294 
L 2450 4294 
L 2450 331 
L 3047 331 
L 3047 0 
L 1222 0 
z
" transform="scale(0.015625)"/>
       <path id="DejaVuSerif-6f" d="M 1925 219 
Q 2388 219 2623 584 
Q 2859 950 2859 1663 
Q 2859 2375 2623 2739 
Q 2388 3103 1925 3103 
Q 1463 3103 1227 2739 
Q 991 2375 991 1663 
Q 991 950 1228 584 
Q 1466 219 1925 219 
z
M 1925 -91 
Q 1200 -91 759 389 
Q 319 869 319 1663 
Q 319 2456 758 2934 
Q 1197 3413 1925 3413 
Q 2653 3413 3092 2934 
Q 3531 2456 3531 1663 
Q 3531 869 3092 389 
Q 2653 -91 1925 -91 
z
" transform="scale(0.015625)"/>
       <path id="DejaVuSerif-74" d="M 691 2988 
L 184 2988 
L 184 3322 
L 691 3322 
L 691 4353 
L 1269 4353 
L 1269 3322 
L 2350 3322 
L 2350 2988 
L 1269 2988 
L 1269 878 
Q 1269 456 1350 337 
Q 1431 219 1650 219 
Q 1875 219 1978 351 
Q 2081 484 2088 781 
L 2522 781 
Q 2497 328 2275 118 
Q 2053 -91 1600 -91 
Q 1103 -91 897 129 
Q 691 350 691 878 
L 691 2988 
z
" transform="scale(0.015625)"/>
       <path id="DejaVuSerif-61" d="M 2547 1044 
L 2547 1747 
L 1806 1747 
Q 1378 1747 1168 1562 
Q 959 1378 959 997 
Q 959 650 1171 447 
Q 1384 244 1747 244 
Q 2106 244 2326 466 
Q 2547 688 2547 1044 
z
M 3122 2075 
L 3122 331 
L 3634 331 
L 3634 0 
L 2547 0 
L 2547 359 
Q 2356 128 2106 18 
Q 1856 -91 1522 -91 
Q 969 -91 644 203 
Q 319 497 319 997 
Q 319 1513 691 1797 
Q 1063 2081 1741 2081 
L 2547 2081 
L 2547 2309 
Q 2547 2688 2317 2895 
Q 2088 3103 1672 3103 
Q 1328 3103 1125 2947 
Q 922 2791 872 2484 
L 575 2484 
L 575 3156 
Q 875 3284 1158 3348 
Q 1441 3413 1709 3413 
Q 2400 3413 2761 3070 
Q 3122 2728 3122 2075 
z
" transform="scale(0.015625)"/>
       <path id="DejaVuSerif-6c" d="M 1313 331 
L 1856 331 
L 1856 0 
L 184 0 
L 184 331 
L 738 331 
L 738 4531 
L 184 4531 
L 184 4863 
L 1313 4863 
L 1313 331 
z
" transform="scale(0.015625)"/>
       <path id="DejaVuSerif-20" transform="scale(0.015625)"/>
       <path id="DejaVuSerif-65" d="M 3469 1600 
L 991 1600 
L 991 1575 
Q 991 903 1244 561 
Q 1497 219 1991 219 
Q 2369 219 2611 417 
Q 2853 616 2950 1006 
L 3413 1006 
Q 3275 459 2904 184 
Q 2534 -91 1931 -91 
Q 1203 -91 761 389 
Q 319 869 319 1663 
Q 319 2450 753 2931 
Q 1188 3413 1894 3413 
Q 2647 3413 3050 2948 
Q 3453 2484 3469 1600 
z
M 2791 1931 
Q 2772 2513 2545 2808 
Q 2319 3103 1894 3103 
Q 1497 3103 1269 2806 
Q 1041 2509 991 1931 
L 2791 1931 
z
" transform="scale(0.015625)"/>
       <path id="DejaVuSerif-6d" d="M 3316 2675 
Q 3481 3041 3739 3227 
Q 3997 3413 4341 3413 
Q 4863 3413 5119 3089 
Q 5375 2766 5375 2113 
L 5375 331 
L 5894 331 
L 5894 0 
L 4300 0 
L 4300 331 
L 4800 331 
L 4800 2047 
Q 4800 2556 4650 2772 
Q 4500 2988 4153 2988 
Q 3769 2988 3567 2697 
Q 3366 2406 3366 1850 
L 3366 331 
L 3866 331 
L 3866 0 
L 2291 0 
L 2291 331 
L 2791 331 
L 2791 2069 
Q 2791 2566 2641 2777 
Q 2491 2988 2144 2988 
Q 1759 2988 1557 2697 
Q 1356 2406 1356 1850 
L 1356 331 
L 1856 331 
L 1856 0 
L 263 0 
L 263 331 
L 781 331 
L 781 2994 
L 231 2994 
L 231 3322 
L 1356 3322 
L 1356 2731 
Q 1516 3063 1762 3238 
Q 2009 3413 2322 3413 
Q 2709 3413 2968 3220 
Q 3228 3028 3316 2675 
z
" transform="scale(0.015625)"/>
       <path id="DejaVuSerif-43" d="M 4513 1234 
Q 4306 581 3820 245 
Q 3334 -91 2591 -91 
Q 2134 -91 1743 65 
Q 1353 222 1050 525 
Q 700 875 529 1320 
Q 359 1766 359 2328 
Q 359 3416 987 4083 
Q 1616 4750 2644 4750 
Q 3025 4750 3456 4650 
Q 3888 4550 4384 4347 
L 4384 3272 
L 4031 3272 
Q 3916 3859 3567 4137 
Q 3219 4416 2591 4416 
Q 1844 4416 1459 3886 
Q 1075 3356 1075 2328 
Q 1075 1303 1459 773 
Q 1844 244 2591 244 
Q 3113 244 3450 492 
Q 3788 741 3938 1234 
L 4513 1234 
z
" transform="scale(0.015625)"/>
       <path id="DejaVuSerif-73" d="M 359 184 
L 359 959 
L 691 959 
Q 703 588 923 403 
Q 1144 219 1575 219 
Q 1963 219 2166 364 
Q 2369 509 2369 788 
Q 2369 1006 2220 1140 
Q 2072 1275 1594 1428 
L 1178 1569 
Q 750 1706 558 1912 
Q 366 2119 366 2438 
Q 366 2894 700 3153 
Q 1034 3413 1625 3413 
Q 1888 3413 2178 3344 
Q 2469 3275 2778 3144 
L 2778 2419 
L 2447 2419 
Q 2434 2741 2221 2922 
Q 2009 3103 1644 3103 
Q 1281 3103 1095 2975 
Q 909 2847 909 2591 
Q 909 2381 1050 2254 
Q 1191 2128 1613 1997 
L 2069 1856 
Q 2541 1709 2748 1489 
Q 2956 1269 2956 922 
Q 2956 450 2595 179 
Q 2234 -91 1600 -91 
Q 1278 -91 972 -22 
Q 666 47 359 184 
z
" transform="scale(0.015625)"/>
       <path id="DejaVuSerif-28" d="M 2041 -997 
Q 1281 -656 893 83 
Q 506 822 506 1931 
Q 506 3044 893 3783 
Q 1281 4522 2041 4863 
L 2041 4556 
Q 1559 4225 1350 3623 
Q 1141 3022 1141 1931 
Q 1141 844 1350 242 
Q 1559 -359 2041 -691 
L 2041 -997 
z
" transform="scale(0.015625)"/>
       <path id="DejaVuSans-24" d="M 2163 -941 
L 1850 -941 
L 1847 0 
Q 1519 6 1191 76 
Q 863 147 531 288 
L 531 850 
Q 850 650 1176 548 
Q 1503 447 1850 444 
L 1850 1869 
Q 1159 1981 845 2250 
Q 531 2519 531 2988 
Q 531 3497 872 3790 
Q 1213 4084 1850 4128 
L 1850 4863 
L 2163 4863 
L 2163 4138 
Q 2453 4125 2725 4076 
Q 2997 4028 3256 3944 
L 3256 3397 
Q 2997 3528 2723 3600 
Q 2450 3672 2163 3684 
L 2163 2350 
Q 2872 2241 3206 1959 
Q 3541 1678 3541 1191 
Q 3541 663 3186 358 
Q 2831 53 2163 6 
L 2163 -941 
z
M 1850 2406 
L 1850 3688 
Q 1488 3647 1297 3481 
Q 1106 3316 1106 3041 
Q 1106 2772 1282 2622 
Q 1459 2472 1850 2406 
z
M 2163 1806 
L 2163 453 
Q 2559 506 2761 678 
Q 2963 850 2963 1131 
Q 2963 1406 2770 1568 
Q 2578 1731 2163 1806 
z
" transform="scale(0.015625)"/>
       <path id="DejaVuSerif-29" d="M 453 -997 
L 453 -691 
Q 934 -359 1145 242 
Q 1356 844 1356 1931 
Q 1356 3022 1145 3623 
Q 934 4225 453 4556 
L 453 4863 
Q 1216 4522 1603 3783 
Q 1991 3044 1991 1931 
Q 1991 822 1603 83 
Q 1216 -656 453 -997 
z
" transform="scale(0.015625)"/>
      </defs>
      <use xlink:href="#DejaVuSerif-54" transform="translate(0 0.015625)"/>
      <use xlink:href="#DejaVuSerif-6f" transform="translate(66.699219 0.015625)"/>
      <use xlink:href="#DejaVuSerif-74" transform="translate(126.904297 0.015625)"/>
      <use xlink:href="#DejaVuSerif-61" transform="translate(167.089844 0.015625)"/>
      <use xlink:href="#DejaVuSerif-6c" transform="translate(226.708984 0.015625)"/>
      <use xlink:href="#DejaVuSerif-20" transform="translate(258.691406 0.015625)"/>
      <use xlink:href="#DejaVuSerif-54" transform="translate(290.478516 0.015625)"/>
      <use xlink:href="#DejaVuSerif-65" transform="translate(357.177734 0.015625)"/>
      <use xlink:href="#DejaVuSerif-61" transform="translate(416.357422 0.015625)"/>
      <use xlink:href="#DejaVuSerif-6d" transform="translate(475.976562 0.015625)"/>
      <use xlink:href="#DejaVuSerif-20" transform="translate(570.800781 0.015625)"/>
      <use xlink:href="#DejaVuSerif-43" transform="translate(602.587891 0.015625)"/>
      <use xlink:href="#DejaVuSerif-6f" transform="translate(679.101562 0.015625)"/>
      <use xlink:href="#DejaVuSerif-73" transform="translate(739.306641 0.015625)"/>
      <use xlink:href="#DejaVuSerif-74" transform="translate(790.625 0.015625)"/>
      <use xlink:href="#DejaVuSerif-20" transform="translate(830.810547 0.015625)"/>
      <use xlink:href="#DejaVuSerif-28" transform="translate(862.597656 0.015625)"/>
      <use xlink:href="#DejaVuSans-24" transform="translate(901.611328 0.015625)"/>
      <use xlink:href="#DejaVuSerif-29" transform="translate(965.234375 0.015625)"/>
     </g>
    </g>
   </g>
   <g id="matplotlib.axis_2">
    <g id="ytick_1">
     <g id="line2d_6">
      <defs>
       <path id="md48be9b2aa" d="M 0 0 
L -3.5 0 
" style="stroke: #000000; stroke-width: 0.8"/>
      </defs>
      <g>
       <use xlink:href="#md48be9b2aa" x="46.965625" y="296.132312" style="stroke: #000000; stroke-width: 0.8"/>
      </g>
     </g>
     <g id="text_7">
      <!-- 0 -->
      <g transform="translate(33.603125 299.931531)scale(0.1 -0.1)">
       <use xlink:href="#DejaVuSerif-30"/>
      </g>
     </g>
    </g>
    <g id="ytick_2">
     <g id="line2d_7">
      <g>
       <use xlink:href="#md48be9b2aa" x="46.965625" y="249.851965" style="stroke: #000000; stroke-width: 0.8"/>
      </g>
     </g>
     <g id="text_8">
      <!-- 20 -->
      <g transform="translate(27.240625 253.651183)scale(0.1 -0.1)">
       <use xlink:href="#DejaVuSerif-32"/>
       <use xlink:href="#DejaVuSerif-30" x="63.623047"/>
      </g>
     </g>
    </g>
    <g id="ytick_3">
     <g id="line2d_8">
      <g>
       <use xlink:href="#md48be9b2aa" x="46.965625" y="203.571617" style="stroke: #000000; stroke-width: 0.8"/>
      </g>
     </g>
     <g id="text_9">
      <!-- 40 -->
      <g transform="translate(27.240625 207.370836)scale(0.1 -0.1)">
       <defs>
        <path id="DejaVuSerif-34" d="M 2234 1581 
L 2234 4063 
L 641 1581 
L 2234 1581 
z
M 3609 0 
L 1484 0 
L 1484 331 
L 2234 331 
L 2234 1247 
L 197 1247 
L 197 1588 
L 2241 4750 
L 2859 4750 
L 2859 1581 
L 3750 1581 
L 3750 1247 
L 2859 1247 
L 2859 331 
L 3609 331 
L 3609 0 
z
" transform="scale(0.015625)"/>
       </defs>
       <use xlink:href="#DejaVuSerif-34"/>
       <use xlink:href="#DejaVuSerif-30" x="63.623047"/>
      </g>
     </g>
    </g>
    <g id="ytick_4">
     <g id="line2d_9">
      <g>
       <use xlink:href="#md48be9b2aa" x="46.965625" y="157.291269" style="stroke: #000000; stroke-width: 0.8"/>
      </g>
     </g>
     <g id="text_10">
      <!-- 60 -->
      <g transform="translate(27.240625 161.090488)scale(0.1 -0.1)">
       <defs>
        <path id="DejaVuSerif-36" d="M 2094 219 
Q 2534 219 2771 542 
Q 3009 866 3009 1472 
Q 3009 2078 2771 2401 
Q 2534 2725 2094 2725 
Q 1647 2725 1412 2412 
Q 1178 2100 1178 1509 
Q 1178 888 1415 553 
Q 1653 219 2094 219 
z
M 1075 2569 
Q 1288 2803 1556 2918 
Q 1825 3034 2163 3034 
Q 2859 3034 3264 2615 
Q 3669 2197 3669 1472 
Q 3669 763 3233 336 
Q 2797 -91 2069 -91 
Q 1278 -91 853 498 
Q 428 1088 428 2181 
Q 428 3406 931 4078 
Q 1434 4750 2350 4750 
Q 2597 4750 2869 4703 
Q 3141 4656 3425 4563 
L 3425 3794 
L 3072 3794 
Q 3034 4109 2831 4275 
Q 2628 4441 2284 4441 
Q 1678 4441 1381 3981 
Q 1084 3522 1075 2569 
z
" transform="scale(0.015625)"/>
       </defs>
       <use xlink:href="#DejaVuSerif-36"/>
       <use xlink:href="#DejaVuSerif-30" x="63.623047"/>
      </g>
     </g>
    </g>
    <g id="ytick_5">
     <g id="line2d_10">
      <g>
       <use xlink:href="#md48be9b2aa" x="46.965625" y="111.010921" style="stroke: #000000; stroke-width: 0.8"/>
      </g>
     </g>
     <g id="text_11">
      <!-- 80 -->
      <g transform="translate(27.240625 114.81014)scale(0.1 -0.1)">
       <defs>
        <path id="DejaVuSerif-38" d="M 2981 1275 
Q 2981 1775 2732 2051 
Q 2484 2328 2034 2328 
Q 1584 2328 1336 2051 
Q 1088 1775 1088 1275 
Q 1088 772 1336 495 
Q 1584 219 2034 219 
Q 2484 219 2732 495 
Q 2981 772 2981 1275 
z
M 2853 3541 
Q 2853 3966 2637 4203 
Q 2422 4441 2034 4441 
Q 1650 4441 1433 4203 
Q 1216 3966 1216 3541 
Q 1216 3113 1433 2875 
Q 1650 2638 2034 2638 
Q 2422 2638 2637 2875 
Q 2853 3113 2853 3541 
z
M 2516 2484 
Q 3047 2413 3344 2092 
Q 3641 1772 3641 1275 
Q 3641 619 3225 264 
Q 2809 -91 2034 -91 
Q 1263 -91 845 264 
Q 428 619 428 1275 
Q 428 1772 725 2092 
Q 1022 2413 1556 2484 
Q 1084 2569 832 2842 
Q 581 3116 581 3541 
Q 581 4103 968 4426 
Q 1356 4750 2034 4750 
Q 2713 4750 3100 4426 
Q 3488 4103 3488 3541 
Q 3488 3116 3236 2842 
Q 2984 2569 2516 2484 
z
" transform="scale(0.015625)"/>
       </defs>
       <use xlink:href="#DejaVuSerif-38"/>
       <use xlink:href="#DejaVuSerif-30" x="63.623047"/>
      </g>
     </g>
    </g>
    <g id="ytick_6">
     <g id="line2d_11">
      <g>
       <use xlink:href="#md48be9b2aa" x="46.965625" y="64.730573" style="stroke: #000000; stroke-width: 0.8"/>
      </g>
     </g>
     <g id="text_12">
      <!-- 100 -->
      <g transform="translate(20.878125 68.529792)scale(0.1 -0.1)">
       <use xlink:href="#DejaVuSerif-31"/>
       <use xlink:href="#DejaVuSerif-30" x="63.623047"/>
       <use xlink:href="#DejaVuSerif-30" x="127.246094"/>
      </g>
     </g>
    </g>
    <g id="text_13">
     <!-- Relative Contribution ($\%$) -->
     <g transform="translate(14.798438 227.926312)rotate(-90)scale(0.1 -0.1)">
      <defs>
       <path id="DejaVuSerif-52" d="M 3066 2316 
Q 3284 2256 3442 2114 
Q 3600 1972 3725 1716 
L 4403 331 
L 4972 331 
L 4972 0 
L 3872 0 
L 3144 1484 
Q 2934 1916 2759 2042 
Q 2584 2169 2278 2169 
L 1581 2169 
L 1581 331 
L 2241 331 
L 2241 0 
L 353 0 
L 353 331 
L 947 331 
L 947 4331 
L 353 4331 
L 353 4666 
L 2719 4666 
Q 3400 4666 3770 4341 
Q 4141 4016 4141 3419 
Q 4141 2938 3870 2661 
Q 3600 2384 3066 2316 
z
M 1581 2503 
L 2503 2503 
Q 2975 2503 3200 2726 
Q 3425 2950 3425 3419 
Q 3425 3888 3200 4109 
Q 2975 4331 2503 4331 
L 1581 4331 
L 1581 2503 
z
" transform="scale(0.015625)"/>
       <path id="DejaVuSerif-69" d="M 622 4353 
Q 622 4497 726 4603 
Q 831 4709 978 4709 
Q 1122 4709 1226 4603 
Q 1331 4497 1331 4353 
Q 1331 4206 1228 4103 
Q 1125 4000 978 4000 
Q 831 4000 726 4103 
Q 622 4206 622 4353 
z
M 1356 331 
L 1900 331 
L 1900 0 
L 231 0 
L 231 331 
L 781 331 
L 781 2988 
L 231 2988 
L 231 3322 
L 1356 3322 
L 1356 331 
z
" transform="scale(0.015625)"/>
       <path id="DejaVuSerif-76" d="M 1581 0 
L 359 2988 
L -19 2988 
L -19 3322 
L 1509 3322 
L 1509 2988 
L 978 2988 
L 1913 703 
L 2847 2988 
L 2350 2988 
L 2350 3322 
L 3597 3322 
L 3597 2988 
L 3225 2988 
L 2003 0 
L 1581 0 
z
" transform="scale(0.015625)"/>
       <path id="DejaVuSerif-6e" d="M 263 0 
L 263 331 
L 781 331 
L 781 2988 
L 231 2988 
L 231 3322 
L 1356 3322 
L 1356 2731 
Q 1516 3069 1770 3241 
Q 2025 3413 2363 3413 
Q 2913 3413 3172 3097 
Q 3431 2781 3431 2113 
L 3431 331 
L 3944 331 
L 3944 0 
L 2356 0 
L 2356 331 
L 2853 331 
L 2853 1931 
Q 2853 2541 2703 2767 
Q 2553 2994 2175 2994 
Q 1775 2994 1565 2701 
Q 1356 2409 1356 1850 
L 1356 331 
L 1856 331 
L 1856 0 
L 263 0 
z
" transform="scale(0.015625)"/>
       <path id="DejaVuSerif-72" d="M 3059 3328 
L 3059 2497 
L 2728 2497 
Q 2713 2744 2591 2866 
Q 2469 2988 2234 2988 
Q 1809 2988 1582 2694 
Q 1356 2400 1356 1850 
L 1356 331 
L 2022 331 
L 2022 0 
L 263 0 
L 263 331 
L 781 331 
L 781 2994 
L 231 2994 
L 231 3322 
L 1356 3322 
L 1356 2731 
Q 1525 3078 1790 3245 
Q 2056 3413 2438 3413 
Q 2578 3413 2733 3391 
Q 2888 3369 3059 3328 
z
" transform="scale(0.015625)"/>
       <path id="DejaVuSerif-62" d="M 738 331 
L 738 4531 
L 184 4531 
L 184 4863 
L 1313 4863 
L 1313 2803 
Q 1481 3116 1742 3264 
Q 2003 3413 2388 3413 
Q 3000 3413 3387 2928 
Q 3775 2444 3775 1663 
Q 3775 881 3387 395 
Q 3000 -91 2388 -91 
Q 2003 -91 1742 57 
Q 1481 206 1313 519 
L 1313 0 
L 184 0 
L 184 331 
L 738 331 
z
M 1313 1497 
Q 1313 897 1542 583 
Q 1772 269 2209 269 
Q 2650 269 2876 622 
Q 3103 975 3103 1663 
Q 3103 2353 2876 2703 
Q 2650 3053 2209 3053 
Q 1772 3053 1542 2737 
Q 1313 2422 1313 1825 
L 1313 1497 
z
" transform="scale(0.015625)"/>
       <path id="DejaVuSerif-75" d="M 2266 3322 
L 3341 3322 
L 3341 331 
L 3884 331 
L 3884 0 
L 2766 0 
L 2766 588 
Q 2606 256 2353 82 
Q 2100 -91 1766 -91 
Q 1213 -91 952 223 
Q 691 538 691 1209 
L 691 2988 
L 172 2988 
L 172 3322 
L 1269 3322 
L 1269 1388 
Q 1269 781 1417 556 
Q 1566 331 1947 331 
Q 2347 331 2556 625 
Q 2766 919 2766 1478 
L 2766 2988 
L 2266 2988 
L 2266 3322 
z
" transform="scale(0.015625)"/>
       <path id="DejaVuSans-25" d="M 4653 2053 
Q 4381 2053 4226 1822 
Q 4072 1591 4072 1178 
Q 4072 772 4226 539 
Q 4381 306 4653 306 
Q 4919 306 5073 539 
Q 5228 772 5228 1178 
Q 5228 1588 5073 1820 
Q 4919 2053 4653 2053 
z
M 4653 2450 
Q 5147 2450 5437 2106 
Q 5728 1763 5728 1178 
Q 5728 594 5436 251 
Q 5144 -91 4653 -91 
Q 4153 -91 3862 251 
Q 3572 594 3572 1178 
Q 3572 1766 3864 2108 
Q 4156 2450 4653 2450 
z
M 1428 4353 
Q 1159 4353 1004 4120 
Q 850 3888 850 3481 
Q 850 3069 1003 2837 
Q 1156 2606 1428 2606 
Q 1700 2606 1854 2837 
Q 2009 3069 2009 3481 
Q 2009 3884 1853 4118 
Q 1697 4353 1428 4353 
z
M 4250 4750 
L 4750 4750 
L 1831 -91 
L 1331 -91 
L 4250 4750 
z
M 1428 4750 
Q 1922 4750 2215 4408 
Q 2509 4066 2509 3481 
Q 2509 2891 2217 2550 
Q 1925 2209 1428 2209 
Q 931 2209 642 2551 
Q 353 2894 353 3481 
Q 353 4063 643 4406 
Q 934 4750 1428 4750 
z
" transform="scale(0.015625)"/>
      </defs>
      <use xlink:href="#DejaVuSerif-52" transform="translate(0 0.015625)"/>
      <use xlink:href="#DejaVuSerif-65" transform="translate(75.292969 0.015625)"/>
      <use xlink:href="#DejaVuSerif-6c" transform="translate(134.472656 0.015625)"/>
      <use xlink:href="#DejaVuSerif-61" transform="translate(166.455078 0.015625)"/>
      <use xlink:href="#DejaVuSerif-74" transform="translate(226.074219 0.015625)"/>
      <use xlink:href="#DejaVuSerif-69" transform="translate(266.259766 0.015625)"/>
      <use xlink:href="#DejaVuSerif-76" transform="translate(298.242188 0.015625)"/>
      <use xlink:href="#DejaVuSerif-65" transform="translate(354.736328 0.015625)"/>
      <use xlink:href="#DejaVuSerif-20" transform="translate(413.916016 0.015625)"/>
      <use xlink:href="#DejaVuSerif-43" transform="translate(445.703125 0.015625)"/>
      <use xlink:href="#DejaVuSerif-6f" transform="translate(522.216797 0.015625)"/>
      <use xlink:href="#DejaVuSerif-6e" transform="translate(582.421875 0.015625)"/>
      <use xlink:href="#DejaVuSerif-74" transform="translate(646.826172 0.015625)"/>
      <use xlink:href="#DejaVuSerif-72" transform="translate(687.011719 0.015625)"/>
      <use xlink:href="#DejaVuSerif-69" transform="translate(734.814453 0.015625)"/>
      <use xlink:href="#DejaVuSerif-62" transform="translate(766.796875 0.015625)"/>
      <use xlink:href="#DejaVuSerif-75" transform="translate(830.810547 0.015625)"/>
      <use xlink:href="#DejaVuSerif-74" transform="translate(895.214844 0.015625)"/>
      <use xlink:href="#DejaVuSerif-69" transform="translate(935.400391 0.015625)"/>
      <use xlink:href="#DejaVuSerif-6f" transform="translate(967.382812 0.015625)"/>
      <use xlink:href="#DejaVuSerif-6e" transform="translate(1027.587891 0.015625)"/>
      <use xlink:href="#DejaVuSerif-20" transform="translate(1091.992188 0.015625)"/>
      <use xlink:href="#DejaVuSerif-28" transform="translate(1123.779297 0.015625)"/>
      <use xlink:href="#DejaVuSans-25" transform="translate(1162.792969 0.015625)"/>
      <use xlink:href="#DejaVuSerif-29" transform="translate(1257.8125 0.015625)"/>
     </g>
    </g>
   </g>
   <g id="patch_88">
    <path d="M 46.965625 296.132312 
L 46.965625 30.020312 
" style="fill: none; stroke: #000000; stroke-width: 0.8; stroke-linejoin: miter; stroke-linecap: square"/>
   </g>
   <g id="patch_89">
    <path d="M 404.085625 296.132312 
L 404.085625 30.020312 
" style="fill: none; stroke: #000000; stroke-width: 0.8; stroke-linejoin: miter; stroke-linecap: square"/>
   </g>
   <g id="patch_90">
    <path d="M 46.965625 296.132312 
L 404.085625 296.132312 
" style="fill: none; stroke: #000000; stroke-width: 0.8; stroke-linejoin: miter; stroke-linecap: square"/>
   </g>
   <g id="patch_91">
    <path d="M 46.965625 30.020312 
L 404.085625 30.020312 
" style="fill: none; stroke: #000000; stroke-width: 0.8; stroke-linejoin: miter; stroke-linecap: square"/>
   </g>
   <g id="text_14">
    <!-- 28.7 -->
    <g transform="translate(74.975909 57.351247)rotate(-90)scale(0.1 -0.1)">
     <defs>
      <path id="DejaVuSerif-2e" d="M 603 325 
Q 603 500 722 622 
Q 841 744 1019 744 
Q 1191 744 1312 622 
Q 1434 500 1434 325 
Q 1434 153 1312 31 
Q 1191 -91 1019 -91 
Q 841 -91 722 29 
Q 603 150 603 325 
z
" transform="scale(0.015625)"/>
     </defs>
     <use xlink:href="#DejaVuSerif-32"/>
     <use xlink:href="#DejaVuSerif-38" x="63.623047"/>
     <use xlink:href="#DejaVuSerif-2e" x="127.246094"/>
     <use xlink:href="#DejaVuSerif-37" x="159.033203"/>
    </g>
   </g>
   <g id="text_15">
    <!-- 32.0 -->
    <g transform="translate(93.012273 57.351247)rotate(-90)scale(0.1 -0.1)">
     <defs>
      <path id="DejaVuSerif-33" d="M 622 4469 
Q 988 4606 1323 4678 
Q 1659 4750 1953 4750 
Q 2638 4750 3022 4454 
Q 3406 4159 3406 3634 
Q 3406 3213 3140 2930 
Q 2875 2647 2388 2547 
Q 2963 2466 3280 2130 
Q 3597 1794 3597 1259 
Q 3597 606 3158 257 
Q 2719 -91 1894 -91 
Q 1528 -91 1179 -12 
Q 831 66 488 225 
L 488 1131 
L 838 1131 
Q 869 681 1141 450 
Q 1413 219 1906 219 
Q 2384 219 2661 495 
Q 2938 772 2938 1253 
Q 2938 1803 2653 2086 
Q 2369 2369 1819 2369 
L 1522 2369 
L 1522 2688 
L 1678 2688 
Q 2225 2688 2498 2914 
Q 2772 3141 2772 3597 
Q 2772 4006 2547 4223 
Q 2322 4441 1900 4441 
Q 1478 4441 1245 4241 
Q 1013 4041 972 3647 
L 622 3647 
L 622 4469 
z
" transform="scale(0.015625)"/>
     </defs>
     <use xlink:href="#DejaVuSerif-33"/>
     <use xlink:href="#DejaVuSerif-32" x="63.623047"/>
     <use xlink:href="#DejaVuSerif-2e" x="127.246094"/>
     <use xlink:href="#DejaVuSerif-30" x="159.033203"/>
    </g>
   </g>
   <g id="text_16">
    <!-- 39.0 -->
    <g transform="translate(111.048636 57.351247)rotate(-90)scale(0.1 -0.1)">
     <defs>
      <path id="DejaVuSerif-39" d="M 2994 2091 
Q 2784 1856 2512 1740 
Q 2241 1625 1900 1625 
Q 1206 1625 804 2044 
Q 403 2463 403 3188 
Q 403 3897 839 4323 
Q 1275 4750 2003 4750 
Q 2794 4750 3217 4161 
Q 3641 3572 3641 2478 
Q 3641 1253 3137 581 
Q 2634 -91 1722 -91 
Q 1475 -91 1203 -44 
Q 931 3 647 97 
L 647 872 
L 997 872 
Q 1038 556 1241 387 
Q 1444 219 1784 219 
Q 2391 219 2687 676 
Q 2984 1134 2994 2091 
z
M 1978 4441 
Q 1534 4441 1298 4117 
Q 1063 3794 1063 3188 
Q 1063 2581 1298 2256 
Q 1534 1931 1978 1931 
Q 2422 1931 2658 2245 
Q 2894 2559 2894 3150 
Q 2894 3772 2656 4106 
Q 2419 4441 1978 4441 
z
" transform="scale(0.015625)"/>
     </defs>
     <use xlink:href="#DejaVuSerif-33"/>
     <use xlink:href="#DejaVuSerif-39" x="63.623047"/>
     <use xlink:href="#DejaVuSerif-2e" x="127.246094"/>
     <use xlink:href="#DejaVuSerif-30" x="159.033203"/>
    </g>
   </g>
   <g id="text_17">
    <!-- 10.8 -->
    <g transform="translate(142.612273 57.351247)rotate(-90)scale(0.1 -0.1)">
     <use xlink:href="#DejaVuSerif-31"/>
     <use xlink:href="#DejaVuSerif-30" x="63.623047"/>
     <use xlink:href="#DejaVuSerif-2e" x="127.246094"/>
     <use xlink:href="#DejaVuSerif-38" x="159.033203"/>
    </g>
   </g>
   <g id="text_18">
    <!-- 11.0 -->
    <g transform="translate(160.648636 57.351247)rotate(-90)scale(0.1 -0.1)">
     <use xlink:href="#DejaVuSerif-31"/>
     <use xlink:href="#DejaVuSerif-31" x="63.623047"/>
     <use xlink:href="#DejaVuSerif-2e" x="127.246094"/>
     <use xlink:href="#DejaVuSerif-30" x="159.033203"/>
    </g>
   </g>
   <g id="text_19">
    <!-- 11.7 -->
    <g transform="translate(178.685 57.351247)rotate(-90)scale(0.1 -0.1)">
     <use xlink:href="#DejaVuSerif-31"/>
     <use xlink:href="#DejaVuSerif-31" x="63.623047"/>
     <use xlink:href="#DejaVuSerif-2e" x="127.246094"/>
     <use xlink:href="#DejaVuSerif-37" x="159.033203"/>
    </g>
   </g>
   <g id="text_20">
    <!-- 7.2 -->
    <g transform="translate(210.248636 54.169997)rotate(-90)scale(0.1 -0.1)">
     <use xlink:href="#DejaVuSerif-37"/>
     <use xlink:href="#DejaVuSerif-2e" x="63.623047"/>
     <use xlink:href="#DejaVuSerif-32" x="95.410156"/>
    </g>
   </g>
   <g id="text_21">
    <!-- 7.3 -->
    <g transform="translate(228.285 54.169997)rotate(-90)scale(0.1 -0.1)">
     <use xlink:href="#DejaVuSerif-37"/>
     <use xlink:href="#DejaVuSerif-2e" x="63.623047"/>
     <use xlink:href="#DejaVuSerif-33" x="95.410156"/>
    </g>
   </g>
   <g id="text_22">
    <!-- 7.3 -->
    <g transform="translate(246.321364 54.169997)rotate(-90)scale(0.1 -0.1)">
     <use xlink:href="#DejaVuSerif-37"/>
     <use xlink:href="#DejaVuSerif-2e" x="63.623047"/>
     <use xlink:href="#DejaVuSerif-33" x="95.410156"/>
    </g>
   </g>
   <g id="text_23">
    <!-- 4.3 -->
    <g transform="translate(277.885 54.169997)rotate(-90)scale(0.1 -0.1)">
     <use xlink:href="#DejaVuSerif-34"/>
     <use xlink:href="#DejaVuSerif-2e" x="63.623047"/>
     <use xlink:href="#DejaVuSerif-33" x="95.410156"/>
    </g>
   </g>
   <g id="text_24">
    <!-- 4.5 -->
    <g transform="translate(295.921364 54.169997)rotate(-90)scale(0.1 -0.1)">
     <use xlink:href="#DejaVuSerif-34"/>
     <use xlink:href="#DejaVuSerif-2e" x="63.623047"/>
     <use xlink:href="#DejaVuSerif-35" x="95.410156"/>
    </g>
   </g>
   <g id="text_25">
    <!-- 4.5 -->
    <g transform="translate(313.957727 54.169997)rotate(-90)scale(0.1 -0.1)">
     <use xlink:href="#DejaVuSerif-34"/>
     <use xlink:href="#DejaVuSerif-2e" x="63.623047"/>
     <use xlink:href="#DejaVuSerif-35" x="95.410156"/>
    </g>
   </g>
   <g id="text_26">
    <!-- 3.8 -->
    <g transform="translate(345.521364 54.169997)rotate(-90)scale(0.1 -0.1)">
     <use xlink:href="#DejaVuSerif-33"/>
     <use xlink:href="#DejaVuSerif-2e" x="63.623047"/>
     <use xlink:href="#DejaVuSerif-38" x="95.410156"/>
    </g>
   </g>
   <g id="text_27">
    <!-- 4.0 -->
    <g transform="translate(363.557727 54.169997)rotate(-90)scale(0.1 -0.1)">
     <use xlink:href="#DejaVuSerif-34"/>
     <use xlink:href="#DejaVuSerif-2e" x="63.623047"/>
     <use xlink:href="#DejaVuSerif-30" x="95.410156"/>
    </g>
   </g>
   <g id="text_28">
    <!-- 4.0 -->
    <g transform="translate(381.594091 54.169997)rotate(-90)scale(0.1 -0.1)">
     <use xlink:href="#DejaVuSerif-34"/>
     <use xlink:href="#DejaVuSerif-2e" x="63.623047"/>
     <use xlink:href="#DejaVuSerif-30" x="95.410156"/>
    </g>
   </g>
   <g id="legend_1">
    <g id="patch_92">
     <path d="M 100.391225 25.020312 
L 351.353725 25.020312 
Q 353.353725 25.020312 353.353725 23.020312 
L 353.353725 9.2 
Q 353.353725 7.2 351.353725 7.2 
L 100.391225 7.2 
Q 98.391225 7.2 98.391225 9.2 
L 98.391225 23.020312 
Q 98.391225 25.020312 100.391225 25.020312 
z
" style="fill: #ffffff; opacity: 0.8; stroke: #cccccc; stroke-linejoin: miter"/>
    </g>
    <g id="patch_93">
     <path d="M 102.391225 18.798437 
L 122.391225 18.798437 
L 122.391225 11.798437 
L 102.391225 11.798437 
z
" style="fill: #fc8d62; stroke: #000000; stroke-linejoin: miter"/>
    </g>
    <g id="text_29">
     <!-- Drone -->
     <g transform="translate(130.391225 18.798437)scale(0.1 -0.1)">
      <defs>
       <path id="DejaVuSerif-44" d="M 1581 331 
L 2163 331 
Q 3072 331 3558 850 
Q 4044 1369 4044 2338 
Q 4044 3306 3559 3818 
Q 3075 4331 2163 4331 
L 1581 4331 
L 1581 331 
z
M 353 0 
L 353 331 
L 947 331 
L 947 4331 
L 353 4331 
L 353 4666 
L 2209 4666 
Q 3416 4666 4089 4050 
Q 4763 3434 4763 2338 
Q 4763 1238 4088 619 
Q 3413 0 2209 0 
L 353 0 
z
" transform="scale(0.015625)"/>
      </defs>
      <use xlink:href="#DejaVuSerif-44"/>
      <use xlink:href="#DejaVuSerif-72" x="80.175781"/>
      <use xlink:href="#DejaVuSerif-6f" x="127.978516"/>
      <use xlink:href="#DejaVuSerif-6e" x="188.183594"/>
      <use xlink:href="#DejaVuSerif-65" x="252.587891"/>
     </g>
    </g>
    <g id="patch_94">
     <path d="M 181.567788 18.798437 
L 201.567788 18.798437 
L 201.567788 11.798437 
L 181.567788 11.798437 
z
" style="fill: #66c2a5; stroke: #000000; stroke-linejoin: miter"/>
    </g>
    <g id="text_30">
     <!-- Quadruped -->
     <g transform="translate(209.567788 18.798437)scale(0.1 -0.1)">
      <defs>
       <path id="DejaVuSerif-51" d="M 2700 -91 
Q 1628 -91 993 567 
Q 359 1225 359 2328 
Q 359 2894 529 3339 
Q 700 3784 1050 4134 
Q 1356 4441 1750 4595 
Q 2144 4750 2625 4750 
Q 3641 4750 4266 4084 
Q 4891 3419 4891 2328 
Q 4891 1403 4422 773 
Q 3953 144 3128 -38 
Q 3297 -247 3539 -347 
Q 3781 -447 4122 -447 
L 4219 -447 
L 4219 -1025 
Q 3691 -1000 3314 -767 
Q 2938 -534 2700 -91 
z
M 2625 244 
Q 3391 244 3781 770 
Q 4172 1297 4172 2328 
Q 4172 3363 3781 3889 
Q 3391 4416 2625 4416 
Q 1856 4416 1465 3889 
Q 1075 3363 1075 2328 
Q 1075 1297 1465 770 
Q 1856 244 2625 244 
z
" transform="scale(0.015625)"/>
       <path id="DejaVuSerif-64" d="M 3359 331 
L 3909 331 
L 3909 0 
L 2784 0 
L 2784 519 
Q 2616 206 2355 57 
Q 2094 -91 1709 -91 
Q 1097 -91 708 395 
Q 319 881 319 1663 
Q 319 2444 706 2928 
Q 1094 3413 1709 3413 
Q 2094 3413 2355 3264 
Q 2616 3116 2784 2803 
L 2784 4531 
L 2241 4531 
L 2241 4863 
L 3359 4863 
L 3359 331 
z
M 2784 1497 
L 2784 1825 
Q 2784 2422 2554 2737 
Q 2325 3053 1888 3053 
Q 1444 3053 1217 2703 
Q 991 2353 991 1663 
Q 991 975 1217 622 
Q 1444 269 1888 269 
Q 2325 269 2554 583 
Q 2784 897 2784 1497 
z
" transform="scale(0.015625)"/>
       <path id="DejaVuSerif-70" d="M 1313 1825 
L 1313 1497 
Q 1313 897 1542 583 
Q 1772 269 2209 269 
Q 2650 269 2876 622 
Q 3103 975 3103 1663 
Q 3103 2353 2876 2703 
Q 2650 3053 2209 3053 
Q 1772 3053 1542 2737 
Q 1313 2422 1313 1825 
z
M 738 2988 
L 184 2988 
L 184 3322 
L 1313 3322 
L 1313 2803 
Q 1481 3116 1742 3264 
Q 2003 3413 2388 3413 
Q 3000 3413 3387 2928 
Q 3775 2444 3775 1663 
Q 3775 881 3387 395 
Q 3000 -91 2388 -91 
Q 2003 -91 1742 57 
Q 1481 206 1313 519 
L 1313 -997 
L 1856 -997 
L 1856 -1331 
L 184 -1331 
L 184 -997 
L 738 -997 
L 738 2988 
z
" transform="scale(0.015625)"/>
      </defs>
      <use xlink:href="#DejaVuSerif-51"/>
      <use xlink:href="#DejaVuSerif-75" x="81.982422"/>
      <use xlink:href="#DejaVuSerif-61" x="146.386719"/>
      <use xlink:href="#DejaVuSerif-64" x="206.005859"/>
      <use xlink:href="#DejaVuSerif-72" x="270.019531"/>
      <use xlink:href="#DejaVuSerif-75" x="317.822266"/>
      <use xlink:href="#DejaVuSerif-70" x="382.226562"/>
      <use xlink:href="#DejaVuSerif-65" x="446.240234"/>
      <use xlink:href="#DejaVuSerif-64" x="505.419922"/>
     </g>
    </g>
    <g id="patch_95">
     <path d="M 286.5131 18.798437 
L 306.5131 18.798437 
L 306.5131 11.798437 
L 286.5131 11.798437 
z
" style="fill: #8da0cb; stroke: #000000; stroke-linejoin: miter"/>
    </g>
    <g id="text_31">
     <!-- Gantry -->
     <g transform="translate(314.5131 18.798437)scale(0.1 -0.1)">
      <defs>
       <path id="DejaVuSerif-47" d="M 4097 3272 
Q 3988 3856 3641 4136 
Q 3294 4416 2675 4416 
Q 1869 4416 1472 3897 
Q 1075 3378 1075 2328 
Q 1075 1300 1484 772 
Q 1894 244 2688 244 
Q 3041 244 3362 331 
Q 3684 419 3975 594 
L 3975 1797 
L 3097 1797 
L 3097 2131 
L 4609 2131 
L 4609 391 
Q 4194 150 3714 29 
Q 3234 -91 2688 -91 
Q 1631 -91 995 570 
Q 359 1231 359 2328 
Q 359 3434 996 4092 
Q 1634 4750 2713 4750 
Q 3113 4750 3539 4658 
Q 3966 4566 4447 4378 
L 4447 3272 
L 4097 3272 
z
" transform="scale(0.015625)"/>
       <path id="DejaVuSerif-79" d="M 1381 -609 
L 1600 -56 
L 359 2988 
L -19 2988 
L -19 3322 
L 1509 3322 
L 1509 2988 
L 978 2988 
L 1913 703 
L 2847 2988 
L 2350 2988 
L 2350 3322 
L 3597 3322 
L 3597 2988 
L 3225 2988 
L 1703 -750 
Q 1547 -1138 1356 -1280 
Q 1166 -1422 819 -1422 
Q 672 -1422 517 -1397 
Q 363 -1372 206 -1325 
L 206 -691 
L 500 -691 
Q 519 -903 608 -995 
Q 697 -1088 884 -1088 
Q 1056 -1088 1161 -992 
Q 1266 -897 1381 -609 
z
" transform="scale(0.015625)"/>
      </defs>
      <use xlink:href="#DejaVuSerif-47"/>
      <use xlink:href="#DejaVuSerif-61" x="79.882812"/>
      <use xlink:href="#DejaVuSerif-6e" x="139.501953"/>
      <use xlink:href="#DejaVuSerif-74" x="203.90625"/>
      <use xlink:href="#DejaVuSerif-72" x="244.091797"/>
      <use xlink:href="#DejaVuSerif-79" x="291.894531"/>
     </g>
    </g>
   </g>
  </g>
 </g>
 <defs>
  <clipPath id="pd2a17df866">
   <rect x="46.965625" y="30.020312" width="357.12" height="266.112"/>
  </clipPath>
 </defs>
</svg>
